<svg width="16" height="18" viewBox="0 0 16 18" fill="none" xmlns="http://www.w3.org/2000/svg">
<path fill-rule="evenodd" clip-rule="evenodd" d="M12.1111 1C12.1111 0.447715 11.6634 0 11.1111 0C10.5588 0 10.1111 0.447715 10.1111 1V1.55566H5.88892V1C5.88892 0.447715 5.4412 0 4.88892 0C4.33663 0 3.88892 0.447715 3.88892 1V1.55566H2.55556C1.14416 1.55566 0 2.69983 0 4.11122V7.22223V15.0001C0 16.4115 1.14416 17.5557 2.55556 17.5557H13.4444C14.8558 17.5557 16 16.4115 16 15.0001V7.22223V4.11122C16 2.69983 14.8558 1.55566 13.4444 1.55566H12.1111V1ZM14 6.22223V4.11122C14 3.80439 13.7513 3.55566 13.4444 3.55566H12.1111V4.11111C12.1111 4.6634 11.6634 5.11111 11.1111 5.11111C10.5588 5.11111 10.1111 4.6634 10.1111 4.11111V3.55566H5.88892V4.11111C5.88892 4.6634 5.4412 5.11111 4.88892 5.11111C4.33663 5.11111 3.88892 4.6634 3.88892 4.11111V3.55566H2.55556C2.24873 3.55566 2 3.80439 2 4.11122V6.22223H14ZM2 8.22223H14V15.0001C14 15.3069 13.7513 15.5557 13.4444 15.5557H2.55556C2.24873 15.5557 2 15.3069 2 15.0001V8.22223Z" fill="#FE742F"/>
</svg>
