<svg width="67" height="78" viewBox="0 0 67 78" fill="none" xmlns="http://www.w3.org/2000/svg">
<path d="M1.89382 18.4539L32.6305 0.296547C32.9407 0.113286 33.3255 0.111083 33.6378 0.29078L65.194 18.448C65.8683 18.836 65.8607 19.8116 65.1805 20.1891L33.6242 37.7026C33.3189 37.872 32.9473 37.8699 32.6439 37.6971L1.90738 20.1837C1.24019 19.8036 1.23268 18.8444 1.89382 18.4539Z" fill="#1C305C"/>
<path d="M28.3465 40.4253L0 24.1506V53.4438C0 57.1306 2.02858 60.5183 5.27855 62.259L28.6026 74.7515C31.5362 76.3227 35.0592 76.3316 38.0007 74.7753L61.6767 62.2484C64.9515 60.5157 67 57.1143 67 53.4094V33.6444L33.2953 53.1454C33.2953 49.6548 35.1663 46.4321 38.1975 44.7013L63.4348 30.2917C65.6393 29.0329 67 26.6891 67 24.1506L38.259 40.4514C35.1827 42.1962 31.4136 42.1862 28.3465 40.4253Z" fill="#1C305C"/>
</svg>
