<svg width="17" height="17" viewBox="0 0 17 17" fill="none" xmlns="http://www.w3.org/2000/svg">
<path fill-rule="evenodd" clip-rule="evenodd" d="M2 8.5C2 4.91015 4.91015 2 8.5 2C12.0899 2 15 4.91015 15 8.5C15 12.0899 12.0899 15 8.5 15C4.91015 15 2 12.0899 2 8.5ZM8.5 0C3.80558 0 0 3.80558 0 8.5C0 13.1944 3.80558 17 8.5 17C13.1944 17 17 13.1944 17 8.5C17 3.80558 13.1944 0 8.5 0ZM9.5 3.99982C9.5 3.44753 9.05229 2.99982 8.5 2.99982C7.94772 2.99982 7.5 3.44753 7.5 3.99982V8.49982C7.5 8.87859 7.714 9.22485 8.05279 9.39424L11.0528 10.8942C11.5468 11.1412 12.1474 10.941 12.3944 10.447C12.6414 9.95305 12.4412 9.35238 11.9472 9.10539L9.5 7.88178V3.99982Z" fill="#FE742F"/>
</svg>
