<svg width="18" height="18" viewBox="0 0 18 18" fill="none" xmlns="http://www.w3.org/2000/svg">
<path fill-rule="evenodd" clip-rule="evenodd" d="M2.5 3.135C2.5 2.7843 2.7843 2.5 3.135 2.5H4.24997V4.25H2.5V3.135ZM6.25 5.25L6.24997 5.25783V8H11.75V5.25V2.5H6.24997V5.24217L6.25 5.25ZM13.75 6.25V8H15.5V6.25H13.75ZM15.5 4.25H13.75V2.5H14.865C15.2157 2.5 15.5 2.7843 15.5 3.135V4.25ZM17.5 5.24803V3.135C17.5 1.67973 16.3203 0.5 14.865 0.5H12.75H5.24997H3.135C1.67973 0.5 0.5 1.67973 0.5 3.135V5.25V9V12.75V14.865C0.5 16.3203 1.67973 17.5 3.135 17.5H5.24997H12.75H14.865C16.3203 17.5 17.5 16.3203 17.5 14.865V12.752L17.5 12.75L17.5 12.748V9V5.25197C17.5 5.25132 17.5 5.25066 17.5 5.25C17.5 5.24934 17.5 5.24868 17.5 5.24803ZM2.5 6.25H4.24997V8H2.5V6.25ZM15.5 10V11.75H13.75V10H15.5ZM15.5 13.75H13.75V15.5H14.865C15.2157 15.5 15.5 15.2157 15.5 14.865V13.75ZM11.75 10V12.75V15.5H6.24997V12.7578L6.25 12.75L6.24997 12.7422V10H11.75ZM2.5 13.75V14.865C2.5 15.2157 2.7843 15.5 3.135 15.5H4.24997V13.75H2.5ZM4.24997 11.75H2.5V10H4.24997V11.75Z" fill="#269264"/>
</svg>
